<svg width="135" height="46" viewBox="0 0 135 46" fill="none" xmlns="http://www.w3.org/2000/svg">
<path d="M26.1652 25.2049C29.3398 27.155 29.3398 31.7525 26.1652 33.7025L7.6466 45.0778C4.30748 47.1289 0.00390607 44.7364 0.00390625 40.8288L0.00390724 18.0786C0.00390742 14.1712 4.30748 11.7787 7.6466 13.8298L26.1652 25.2049Z" fill="url(#paint0_linear_396_2)"/>
<path d="M26.1658 12.1261C29.3405 14.0761 29.3405 18.6737 26.1658 20.6237L7.64724 31.9988C-0.446743 36.3924 0.00454216 40.9349 0.00454216 40.9349L0.00454102 4.99977C0.0045412 1.09236 4.30812 -1.30015 7.64724 0.750923L26.1658 12.1261Z" fill="url(#paint1_linear_396_2)"/>
<path fill-rule="evenodd" clip-rule="evenodd" d="M41.9805 11.3037V30.9408H43.836V26.7639L46.1701 24.457L52.4362 30.9615H55.0481L47.4874 23.1598L55.2833 15.4711H52.6602L45.9367 22.1044L45.1254 22.9023L43.836 24.1725V11.3037H41.9805ZM59.7228 18.6357C60.9954 17.3682 62.5218 16.7386 64.3219 16.7386C66.1218 16.7386 67.6482 17.3682 68.9208 18.6357C70.1933 19.9031 70.8255 21.4234 70.8255 23.2164C70.8255 25.0091 70.1933 26.5294 68.9208 27.7969C67.6482 29.0644 66.1218 29.6941 64.3219 29.6941C62.5218 29.6941 60.9954 29.0644 59.7228 27.7969C58.4503 26.5294 57.8181 25.0091 57.8181 23.2164C57.8181 21.4234 58.4503 19.9031 59.7228 18.6357ZM58.4085 29.0955C60.0429 30.7234 62.0205 31.542 64.3219 31.542C66.6229 31.542 68.5971 30.7236 70.2246 29.0955C71.8592 27.4746 72.6809 25.5082 72.6809 23.2164C72.6809 20.9245 71.8592 18.9582 70.2246 17.337C68.5971 15.709 66.6229 14.8906 64.3219 14.8906C62.0205 14.8906 60.0429 15.7092 58.4085 17.337C56.7809 18.9584 55.9627 20.9247 55.9627 23.2164C55.9627 25.5079 56.7809 27.4742 58.4085 29.0955ZM75.1699 15.4503V30.9615H77.0252V15.4503H75.1699ZM79.9826 30.9822H81.838V22.0241C81.838 20.5422 82.3591 19.288 83.4097 18.2418C84.46 17.1955 85.7192 16.6764 87.2072 16.6764C88.6878 16.6764 89.9435 17.1952 90.9944 18.2418L90.9951 18.2425C92.0521 19.2889 92.5763 20.5429 92.5763 22.0241V30.9822H94.4214V22.0241C94.4214 20.0436 93.7144 18.3402 92.3092 16.9334L92.3079 16.9321C90.8956 15.5328 89.1891 14.8284 87.2072 14.8284C85.2187 14.8284 83.5086 15.5325 82.0961 16.9321L82.0947 16.9334C80.6896 18.3402 79.9826 20.0436 79.9826 22.0241V30.9822ZM99.2444 18.0003V11.3141H97.3891V23.2164C97.3891 25.5079 98.2071 27.4774 99.8344 29.1054L99.8354 29.1065C101.47 30.7273 103.447 31.542 105.748 31.542C108.049 31.542 110.023 30.7273 111.651 29.106C113.285 27.4781 114.107 25.5084 114.107 23.2164C114.107 20.9245 113.286 18.9584 111.651 17.3374C110.024 15.7091 108.049 14.8906 105.748 14.8906C104.256 14.8906 102.862 15.2665 101.573 16.0166C100.661 16.5415 99.8846 17.2033 99.2444 18.0003ZM99.2444 23.2164C99.2444 21.4234 99.8766 19.9031 101.149 18.6357C102.422 17.3682 103.948 16.7386 105.748 16.7386C107.548 16.7386 109.075 17.3682 110.347 18.6357C111.62 19.9031 112.252 21.4234 112.252 23.2164C112.252 25.0091 111.62 26.5294 110.347 27.7969C109.075 29.0644 107.548 29.6941 105.748 29.6941C103.948 29.6941 102.422 29.0644 101.149 27.7969C99.8766 26.5294 99.2444 25.0091 99.2444 23.2164ZM128.277 15.4296H126.052L121.625 21.641L117.197 15.4296H114.973L120.512 23.1955L114.973 30.9615H117.197L121.625 24.7598L126.052 30.9615H128.277L122.737 23.1955L128.277 15.4296Z" fill="url(#paint2_linear_396_2)"/>
<defs>
<linearGradient id="paint0_linear_396_2" x1="23.7132" y1="34.7655" x2="7.48799" y2="26.2198" gradientUnits="userSpaceOnUse">
<stop stop-color="#425DF3"/>
<stop offset="1" stop-color="#182B96"/>
</linearGradient>
<linearGradient id="paint1_linear_396_2" x1="16.3933" y1="6.64074" x2="0.105937" y2="37.1953" gradientUnits="userSpaceOnUse">
<stop stop-color="#00C5F6"/>
<stop offset="1" stop-color="#00C5F6"/>
</linearGradient>
<linearGradient id="paint2_linear_396_2" x1="95.1236" y1="22.8231" x2="96.1005" y2="22.8231" gradientUnits="userSpaceOnUse">
<stop stop-color="#101032"/>
<stop offset="1" stop-color="#00C5F6"/>
</linearGradient>
</defs>
</svg>
